<mxfile host="app.diagrams.net" modified="2021-09-23T18:00:55.305Z" agent="5.0 (X11)" etag="g3Y_MCRhU6V4jsCvvjGd" version="15.3.0" type="github">
  <diagram id="riBw2hefUgdSN7MdK4-x" name="Page-1">
    <mxGraphModel dx="1422" dy="913" grid="0" gridSize="10" guides="1" tooltips="1" connect="1" arrows="1" fold="1" page="1" pageScale="1" pageWidth="850" pageHeight="1100" math="0" shadow="0">
      <root>
        <mxCell id="0" />
        <mxCell id="1" parent="0" />
        <mxCell id="iO_db-Y_KwYlcvKNzQMu-1" style="edgeStyle=orthogonalEdgeStyle;rounded=0;orthogonalLoop=1;jettySize=auto;html=1;exitX=1;exitY=0.25;exitDx=0;exitDy=0;entryX=0;entryY=0.25;entryDx=0;entryDy=0;" edge="1" parent="1" source="iO_db-Y_KwYlcvKNzQMu-2" target="iO_db-Y_KwYlcvKNzQMu-6">
          <mxGeometry relative="1" as="geometry" />
        </mxCell>
        <mxCell id="iO_db-Y_KwYlcvKNzQMu-2" value="" style="strokeColor=#dddddd;shadow=1;strokeWidth=1;rounded=1;absoluteArcSize=1;arcSize=2;" vertex="1" parent="1">
          <mxGeometry x="110" y="290" width="190" height="60" as="geometry" />
        </mxCell>
        <mxCell id="iO_db-Y_KwYlcvKNzQMu-3" value="&lt;div&gt;&lt;b&gt;private-instance&lt;/b&gt;&lt;/div&gt;&lt;div&gt;&lt;b&gt;tag: without-external-ip&lt;/b&gt;&lt;/div&gt;" style="sketch=0;dashed=0;connectable=0;html=1;fillColor=#5184F3;strokeColor=none;shape=mxgraph.gcp2.hexIcon;prIcon=compute_engine;part=1;labelPosition=right;verticalLabelPosition=middle;align=left;verticalAlign=middle;spacingLeft=5;fontColor=#999999;fontSize=12;" vertex="1" parent="iO_db-Y_KwYlcvKNzQMu-2">
          <mxGeometry y="0.5" width="44" height="39" relative="1" as="geometry">
            <mxPoint x="5" y="-19.5" as="offset" />
          </mxGeometry>
        </mxCell>
        <mxCell id="iO_db-Y_KwYlcvKNzQMu-4" style="edgeStyle=orthogonalEdgeStyle;rounded=0;orthogonalLoop=1;jettySize=auto;html=1;exitX=0;exitY=0.75;exitDx=0;exitDy=0;entryX=1;entryY=0.75;entryDx=0;entryDy=0;" edge="1" parent="1" source="iO_db-Y_KwYlcvKNzQMu-6" target="iO_db-Y_KwYlcvKNzQMu-2">
          <mxGeometry relative="1" as="geometry" />
        </mxCell>
        <mxCell id="iO_db-Y_KwYlcvKNzQMu-5" style="edgeStyle=orthogonalEdgeStyle;rounded=0;orthogonalLoop=1;jettySize=auto;html=1;exitX=1;exitY=0.25;exitDx=0;exitDy=0;entryX=0;entryY=0.25;entryDx=0;entryDy=0;" edge="1" parent="1" source="iO_db-Y_KwYlcvKNzQMu-6" target="iO_db-Y_KwYlcvKNzQMu-9">
          <mxGeometry relative="1" as="geometry" />
        </mxCell>
        <mxCell id="iO_db-Y_KwYlcvKNzQMu-6" value="" style="strokeColor=#dddddd;shadow=1;strokeWidth=1;rounded=1;absoluteArcSize=1;arcSize=2;" vertex="1" parent="1">
          <mxGeometry x="360" y="290" width="190" height="60" as="geometry" />
        </mxCell>
        <mxCell id="iO_db-Y_KwYlcvKNzQMu-7" value="&lt;div&gt;&lt;b&gt;private-instance&lt;/b&gt;&lt;/div&gt;&lt;div&gt;&lt;b&gt;tag: without-external-ip&lt;/b&gt;&lt;/div&gt;" style="sketch=0;dashed=0;connectable=0;html=1;fillColor=#5184F3;strokeColor=none;shape=mxgraph.gcp2.hexIcon;prIcon=compute_engine;part=1;labelPosition=right;verticalLabelPosition=middle;align=left;verticalAlign=middle;spacingLeft=5;fontColor=#999999;fontSize=12;" vertex="1" parent="iO_db-Y_KwYlcvKNzQMu-6">
          <mxGeometry y="0.5" width="44" height="39" relative="1" as="geometry">
            <mxPoint x="5" y="-19.5" as="offset" />
          </mxGeometry>
        </mxCell>
        <mxCell id="iO_db-Y_KwYlcvKNzQMu-8" style="edgeStyle=orthogonalEdgeStyle;rounded=0;orthogonalLoop=1;jettySize=auto;html=1;exitX=0;exitY=0.75;exitDx=0;exitDy=0;entryX=1;entryY=0.75;entryDx=0;entryDy=0;" edge="1" parent="1" source="iO_db-Y_KwYlcvKNzQMu-9" target="iO_db-Y_KwYlcvKNzQMu-6">
          <mxGeometry relative="1" as="geometry" />
        </mxCell>
        <mxCell id="iO_db-Y_KwYlcvKNzQMu-9" value="" style="aspect=fixed;perimeter=ellipsePerimeter;html=1;align=center;shadow=0;dashed=0;spacingTop=3;image;image=img/lib/active_directory/internet_cloud.svg;" vertex="1" parent="1">
          <mxGeometry x="620" y="287" width="104.76" height="66" as="geometry" />
        </mxCell>
      </root>
    </mxGraphModel>
  </diagram>
</mxfile>
